<?xml version="1.0" encoding="UTF-8"?>
<svg width="46px" height="46px" viewBox="0 0 46 46" version="1.1" xmlns="http://www.w3.org/2000/svg" xmlns:xlink="http://www.w3.org/1999/xlink">
    <title>back_to</title>
    <g id="Welcome" stroke="none" stroke-width="1" fill="none" fill-rule="evenodd">
        <g id="A" transform="translate(-1343.000000, -393.000000)" fill="#7E7C7C" fill-rule="nonzero">
            <g id="back_to" transform="translate(1366.000000, 416.000000) scale(-1, 1) translate(-1366.000000, -416.000000) translate(1343.000000, 393.000000)">
                <path d="M23,0 C10.308594,0 0,10.308594 0,23 C0,35.691406 10.308594,46 23,46 C35.691406,46 46,35.691406 46,23 C46,10.308594 35.691406,0 23,0 Z M23,2 C34.609375,2 44,11.390625 44,23 C44,34.609375 34.609375,44 23,44 C11.390625,44 2,34.609375 2,23 C2,11.390625 11.390625,2 23,2 Z M25.875,12 C25.652344,12.023438 25.441406,12.125 25.28125,12.28125 L15.28125,22.28125 C15.085938,22.46875 14.976563,22.730469 14.976563,23 C14.976563,23.269531 15.085938,23.53125 15.28125,23.71875 L25.28125,33.71875 C25.679688,34.117188 26.320313,34.117188 26.71875,33.71875 C27.117188,33.320313 27.117188,32.679688 26.71875,32.28125 L17.4375,23 L26.71875,13.71875 C27.042969,13.417969 27.128906,12.941406 26.933594,12.546875 C26.742188,12.148438 26.308594,11.929688 25.875,12 Z" id="Shape"></path>
            </g>
        </g>
    </g>
</svg>