<?xml version="1.0" encoding="UTF-8"?>
<svg width="19px" height="17px" viewBox="0 0 19 17" version="1.1" xmlns="http://www.w3.org/2000/svg" xmlns:xlink="http://www.w3.org/1999/xlink">
    <title>Like</title>
    <g id="Welcome" stroke="none" stroke-width="1" fill="none" fill-rule="evenodd">
        <g id="A" transform="translate(-254.000000, -477.000000)" fill="#000000" fill-rule="nonzero">
            <g id="Description" transform="translate(211.000000, 291.000000)">
                <g id="Like" transform="translate(43.000000, 186.000000)">
                    <path d="M5.403125,0 C2.4306643,0 0,2.43340732 0,5.43097345 C0,11.5784291 6.88193348,14.7978981 9.203125,16.7442478 L9.5,17 L9.796875,16.7442478 C12.1180665,14.7978981 19,11.5784291 19,5.43097345 C19,2.43340732 16.5693362,0 13.596875,0 C11.945508,0 10.4908206,0.776659172 9.5,1.95575221 C8.50917992,0.776659172 7.05449242,0 5.403125,0 Z M5.403125,0.962831858 C6.95429687,0.962831858 8.30322278,1.75829658 9.09921875,2.96371681 L9.5,3.56548673 L9.90078125,2.96371681 C10.6967772,1.75829658 12.0457031,0.962831858 13.596875,0.962831858 C16.0590822,0.962831858 18.05,2.9580751 18.05,5.43097345 C18.05,10.6776551 12.2256835,13.6188056 9.5,15.7814159 C6.77431652,13.6188056 0.95,10.6776551 0.95,5.43097345 C0.95,2.9580751 2.9390625,0.962831858 5.403125,0.962831858 Z" id="Shape"></path>
                </g>
            </g>
        </g>
    </g>
</svg>