<?xml version="1.0" encoding="UTF-8"?>
<svg width="22px" height="21px" viewBox="0 0 22 21" version="1.1" xmlns="http://www.w3.org/2000/svg" xmlns:xlink="http://www.w3.org/1999/xlink">
    <title>icons8-search</title>
    <g id="Welcome" stroke="none" stroke-width="1" fill="none" fill-rule="evenodd">
        <g id="A" transform="translate(-1306.000000, -74.000000)" fill="#020202" fill-rule="nonzero">
            <g id="nav-bar" transform="translate(68.000000, 60.000000)">
                <g id="icons8-search" transform="translate(1238.500000, 14.000000)">
                    <path d="M8.32046613,0 C3.73006203,0 0,3.64510688 0,8.13096085 C0,12.6168148 3.73006203,16.2619217 8.32046613,16.2619217 C10.1367446,16.2619217 11.8153678,15.6902138 13.184268,14.7224199 L19.6234523,21 L21,19.6548043 L14.6372906,13.4220641 C15.887655,11.9983988 16.6409323,10.1506227 16.6409323,8.13096085 C16.6409323,3.64510688 12.9108702,0 8.32046613,0 Z M8.32046613,0.95658363 C12.3812819,0.95658363 15.6620539,4.16263345 15.6620539,8.13096085 C15.6620539,12.0992883 12.3812819,15.3053381 8.32046613,15.3053381 C4.2596504,15.3053381 0.978878369,12.0992883 0.978878369,8.13096085 C0.978878369,4.16263345 4.2596504,0.95658363 8.32046613,0.95658363 Z" id="Shape"></path>
                </g>
            </g>
        </g>
    </g>
</svg>