<?xml version="1.0" encoding="UTF-8"?>
<svg width="19px" height="19px" viewBox="0 0 19 19" version="1.1" xmlns="http://www.w3.org/2000/svg" xmlns:xlink="http://www.w3.org/1999/xlink">
    <title>share</title>
    <g id="Welcome" stroke="none" stroke-width="1" fill="none" fill-rule="evenodd">
        <g id="A" transform="translate(-214.000000, -475.000000)" fill="#020202" fill-rule="nonzero">
            <g id="Description" transform="translate(211.000000, 291.000000)">
                <g id="share" transform="translate(3.000000, 184.000000)">
                    <path d="M15.2,0 C13.121875,0 11.4252343,1.6803125 11.4,3.7525 L6.044375,6.43625 C5.415,5.973125 4.63867178,5.7 3.8,5.7 C1.70554678,5.7 0,7.40554678 0,9.5 C0,11.5944532 1.70554678,13.3 3.8,13.3 C4.63867178,13.3 5.415,13.026875 6.044375,12.56375 L11.4,15.2475 C11.4252343,17.3196875 13.121875,19 15.2,19 C17.2944532,19 19,17.2944532 19,15.2 C19,13.1055468 17.2944532,11.4 15.2,11.4 C14.3925,11.4 13.6428907,11.6567968 13.026875,12.08875 L7.8375,9.5 L13.026875,6.91125 C13.6428907,7.34320322 14.3925,7.6 15.2,7.6 C17.2944532,7.6 19,5.89445322 19,3.8 C19,1.70554678 17.2944532,0 15.2,0 Z M15.2,0.76 C16.8832814,0.76 18.24,2.11671894 18.24,3.8 C18.24,5.48328144 16.8832814,6.84 15.2,6.84 C14.5780468,6.84 14.0065625,6.64703144 13.525625,6.329375 C13.478125,6.17054678 13.3341407,6.06070322 13.169375,6.05625 C13.1678907,6.05476572 13.1589843,6.05773428 13.1575,6.05625 C12.6275782,5.57679678 12.2713282,4.90585928 12.18375,4.15625 C12.2639064,4.02265644 12.255,3.8534375 12.16,3.72875 C12.1985939,2.07960928 13.5404689,0.76 15.2,0.76 Z M11.483125,4.56 C11.6241407,5.24726572 11.9507032,5.86625 12.409375,6.365 L7.52875,8.81125 C7.39960928,8.1165625 7.089375,7.49015644 6.638125,6.9825 L11.483125,4.56 Z M3.8,6.46 C4.50359394,6.46 5.15078144,6.6915625 5.664375,7.089375 C5.66882822,7.09234394 5.67179678,7.09828144 5.67625,7.10125 C5.67921894,7.10867178 5.68367178,7.11757822 5.688125,7.125 C5.72078144,7.16507822 5.76085928,7.19625 5.806875,7.22 C5.80835928,7.22148428 5.81726572,7.21851572 5.81875,7.22 C6.38726572,7.7246875 6.7628125,8.44460928 6.828125,9.250625 C6.78507822,9.35453144 6.78953144,9.47179678 6.84,9.57125 C6.83257822,9.60242178 6.828125,9.63359394 6.828125,9.66625 C6.78210928,10.509375 6.39914072,11.2589843 5.806875,11.78 C5.77125,11.8022657 5.73859394,11.8304689 5.711875,11.863125 C5.189375,12.2861718 4.52734394,12.54 3.8,12.54 C2.11671894,12.54 0.76,11.1832814 0.76,9.5 C0.76,7.81671894 2.11671894,6.46 3.8,6.46 Z M7.52875,10.18875 L12.409375,12.635 C11.9507032,13.13375 11.6241407,13.7527343 11.483125,14.44 L6.638125,12.0175 C7.089375,11.5098439 7.39960928,10.8834375 7.52875,10.18875 Z M15.2,12.16 C16.8832814,12.16 18.24,13.5167189 18.24,15.2 C18.24,16.8832814 16.8832814,18.24 15.2,18.24 C13.5167189,18.24 12.16,16.8832814 12.16,15.2 C12.16,14.285625 12.5578125,13.4647657 13.193125,12.908125 C13.2020314,12.9007032 13.2094532,12.8932814 13.216875,12.884375 C13.2183593,12.8828907 13.2272657,12.8858593 13.22875,12.884375 C13.2896093,12.8591407 13.3430468,12.8175782 13.383125,12.765625 C13.8907814,12.3871093 14.5157032,12.16 15.2,12.16 Z" id="Shape"></path>
                </g>
            </g>
        </g>
    </g>
</svg>