<?xml version="1.0" encoding="UTF-8"?>
<svg width="22px" height="21px" viewBox="0 0 22 21" version="1.1" xmlns="http://www.w3.org/2000/svg" xmlns:xlink="http://www.w3.org/1999/xlink">
    <title>Group 2@3x</title>
    <g id="Welcome" stroke="none" stroke-width="1" fill="none" fill-rule="evenodd">
        <g id="A" transform="translate(-1255.000000, -73.000000)">
            <g id="nav-bar" transform="translate(68.000000, 60.000000)">
                <g id="Group-2" transform="translate(1187.000000, 13.000000)">
                    <g id="icons8-shopping_bag" fill="#020202" fill-rule="nonzero">
                        <path d="M9.5,0 C7.12332285,0 5.20621469,1.91350457 5.20621469,4.28571429 L5.20621469,5.14285714 L1.81144068,5.14285714 L1.77118644,5.51785714 L0.0536723164,20.5178571 L0,21 L19,21 L18.9463277,20.5178571 L17.2288136,5.51785714 L17.1885593,5.14285714 L13.7937853,5.14285714 L13.7937853,4.28571429 C13.7937853,1.91350457 11.8766772,0 9.5,0 Z M9.5,0.857142857 C11.4171082,0.857142857 12.9350282,2.37220971 12.9350282,4.28571429 L12.9350282,5.14285714 L6.06497175,5.14285714 L6.06497175,4.28571429 C6.06497175,2.37220971 7.58289184,0.857142857 9.5,0.857142857 Z M2.58968927,6 L5.20621469,6 L5.20621469,6.97767857 C4.94959403,7.126674 4.77683616,7.39787957 4.77683616,7.71428571 C4.77683616,8.18805814 5.16092856,8.57142857 5.63559322,8.57142857 C6.11025788,8.57142857 6.49435028,8.18805814 6.49435028,7.71428571 C6.49435028,7.39787957 6.32159241,7.126674 6.06497175,6.97767857 L6.06497175,6 L12.9350282,6 L12.9350282,6.97767857 C12.6784076,7.126674 12.5056497,7.39787957 12.5056497,7.71428571 C12.5056497,8.18805814 12.8897421,8.57142857 13.3644068,8.57142857 C13.8390714,8.57142857 14.2231638,8.18805814 14.2231638,7.71428571 C14.2231638,7.39787957 14.050406,7.126674 13.7937853,6.97767857 L13.7937853,6 L16.4103107,6 L18.0338983,20.1428571 L0.966101695,20.1428571 L2.58968927,6 Z" id="Shape"></path>
                    </g>
                    <circle id="Oval" fill="#F20707" cx="18" cy="7" r="4"></circle>
                </g>
            </g>
        </g>
    </g>
</svg>